<?xml version="1.0" encoding="UTF-8" standalone="no"?>
<!-- Created with Inkscape (http://www.inkscape.org/) -->

<svg
   xmlns:dc="http://purl.org/dc/elements/1.1/"
   xmlns:cc="http://creativecommons.org/ns#"
   xmlns:rdf="http://www.w3.org/1999/02/22-rdf-syntax-ns#"
   xmlns:svg="http://www.w3.org/2000/svg"
   xmlns="http://www.w3.org/2000/svg"
   xmlns:sodipodi="http://sodipodi.sourceforge.net/DTD/sodipodi-0.dtd"
   xmlns:inkscape="http://www.inkscape.org/namespaces/inkscape"
   width="210mm"
   height="297mm"
   id="svg2"
   version="1.1"
   inkscape:version="0.48.3.1 r9886"
   sodipodi:docname="moose.svg">
  <defs
     id="defs4" />
  <sodipodi:namedview
     id="base"
     pagecolor="#ffffff"
     bordercolor="#666666"
     borderopacity="1.0"
     inkscape:pageopacity="0.0"
     inkscape:pageshadow="2"
     inkscape:zoom="0.49497475"
     inkscape:cx="313.97743"
     inkscape:cy="609.87676"
     inkscape:document-units="px"
     inkscape:current-layer="layer1"
     showgrid="false"
     inkscape:window-width="1366"
     inkscape:window-height="671"
     inkscape:window-x="0"
     inkscape:window-y="25"
     inkscape:window-maximized="1"
     showguides="true"
     inkscape:guide-bbox="true" />
  <metadata
     id="metadata7">
    <rdf:RDF>
      <cc:Work
         rdf:about="">
        <dc:format>image/svg+xml</dc:format>
        <dc:type
           rdf:resource="http://purl.org/dc/dcmitype/StillImage" />
        <dc:title></dc:title>
      </cc:Work>
    </rdf:RDF>
  </metadata>
  <g
     inkscape:label="Capa 1"
     inkscape:groupmode="layer"
     id="layer1">
    <g
       style="font-size:425.28799438px;font-style:normal;font-weight:normal;line-height:125%;letter-spacing:0px;word-spacing:0px;fill:#2e3436;fill-opacity:1;stroke:none;font-family:Sans"
       id="text4710">
      <g
         id="g3893"
         transform="translate(-8.3379919,218.8447)">
        <path
           style="fill:#c17d11;fill-opacity:1;stroke:none"
           d="m 119.04315,376.96244 c 23.63289,8.22919 54.86441,30.15693 53.41636,0 -7.35592,-2.01438 -7.48027,-5.42278 -53.41636,0 z"
           id="path4646"
           inkscape:connector-curvature="0"
           sodipodi:nodetypes="ccc" />
        <path
           sodipodi:nodetypes="csssc"
           inkscape:connector-curvature="0"
           id="path4640"
           d="m 119.04315,376.96244 c 20.4322,-3.28375 24.2275,-28.64157 35.90303,-36.66852 11.67555,-8.02693 -6.93235,-17.87817 6.5675,-10.58096 13.49985,7.29722 6.56749,37.58066 8.75666,42.68872 2.18917,5.10805 2.18917,4.56076 2.18917,4.56076"
           style="fill:#c17d11;fill-opacity:1;stroke:#000000;stroke-width:0.36119375px;stroke-linecap:butt;stroke-linejoin:miter;stroke-opacity:1" />
        <path
           style="fill:#e9b96e;stroke:#2e3436;stroke-width:0.36119375"
           d="m 200.87101,297.58943 c -2.42849,-9.36148 17.90421,-10.0408 40.78701,-11.51948 22.88283,-1.47868 38.86492,-10.12616 42.92201,-30.69424 4.05708,-20.56809 -5.30257,-34.55815 -13.58103,-32.75408 -8.27843,1.80407 -7.40251,34.74458 -13.75124,34.52028 -6.34874,-0.22431 0.21288,-17.78144 -11.12211,-25.93281 -11.33498,-8.15138 -3.42147,20.52701 -9.82341,24.74805 -6.40196,4.22106 -15.28562,3.526 -24.22251,7.27629 -8.9369,3.75031 -20.43153,8.935 -24.95698,15.57304 -4.52547,6.63803 2.72201,37.89769 2.72201,37.89769"
           id="path4631"
           inkscape:connector-curvature="0" />
        <path
           sodipodi:nodetypes="cssssssssc"
           inkscape:connector-curvature="0"
           id="path4629"
           d="m 134.17368,306.43249 c 2.77044,-10.6015 -22.67682,-14.04782 -47.610766,-12.13662 -24.933946,1.9112 -42.249192,-5.07289 -46.404851,-26.91787 -4.155659,-21.84497 6.233491,-38.57133 15.237414,-37.87627 9.003929,0.69506 7.618707,36.81695 14.544809,35.59345 6.926094,-1.2235 0,-19.39308 12.466975,-30.04521 12.466971,-10.65213 3.463042,21.89806 10.389138,25.52283 6.926102,3.62477 16.622631,1.49631 26.319171,4.21611 9.69653,2.71981 22.16351,6.61247 27.01178,13.16695 4.84826,6.55447 -3.46306,41.82202 -3.46306,41.82202"
           style="fill:#e9b96e;stroke:#2e3436;stroke-width:0.36119375" />
        <path
           inkscape:connector-curvature="0"
           id="path4633"
           d="m 185.22963,338.83448 c 0,0 -5.83777,18.24304 -12.40527,18.97277 -6.56749,0.72971 -27.72941,-23.3511 -27.72941,-23.3511 l 30.64831,-13.8647"
           style="fill:#2e3436;stroke:#000000;stroke-width:0.36119375px;stroke-linecap:butt;stroke-linejoin:miter;stroke-opacity:1" />
        <path
           inkscape:connector-curvature="0"
           id="path4635"
           d="m 162.74758,340.85005 c 0,0 12.12579,3.86993 12.12579,9.28784 0,5.4179 -9.28784,7.22387 -9.28784,7.22387 l -7.99786,-12.38378"
           style="fill:#cc0000;stroke:#000000;stroke-width:0.36119375px;stroke-linecap:butt;stroke-linejoin:miter;stroke-opacity:1" />
        <path
           inkscape:connector-curvature="0"
           id="path4619"
           d="m 177.51158,330.80841 c 0,0 -11.75397,9.30524 -12.24372,16.65147 -0.48975,7.34623 16.65147,4.89749 16.16172,7.34623 -0.48975,2.44875 -9.30524,12.24373 -25.46695,4.89749 -16.16172,-7.34623 -29.38494,-29.87468 -23.99771,-47.0159 5.38724,-17.14122 10.28474,-29.38494 9.30524,-38.69017 -0.9795,-9.30524 30.36443,-10.28473 43.58766,-4.40775 13.22323,5.87699 5.38724,39.17993 5.38724,39.17993"
           style="fill:#c17d11;fill-opacity:1;stroke:#2e3436;stroke-width:0.36119375" />
        <path
           sodipodi:nodetypes="cszsaac"
           inkscape:connector-curvature="0"
           id="path4617"
           d="m 159.5353,342.38925 c 2.72006,-1.33045 4.24069,-1.63259 6.42916,-1.88609 8.24525,-0.95506 20.71552,3.91901 26.67754,13.17793 5.96201,9.25891 13.77299,17.77186 25.51495,17.77186 14.87645,0 20.9463,-8.52159 24.02391,-18.05435 3.45051,-10.68778 -1.9768,-24.32541 -10.01357,-32.17046 -15.01741,-14.65916 -37.86285,-16.49173 -60.5475,-17.25465"
           style="fill:#c17d11;fill-opacity:1;stroke:#2e3436;stroke-width:0.36119375" />
        <path
           sodipodi:nodetypes="sssss"
           inkscape:connector-curvature="0"
           id="path4613"
           d="m 237.40415,351.35359 c -0.74718,5.99488 -5.77235,13.61476 -7.45188,13.30804 -3.07867,-0.56224 -2.44103,-8.27452 -1.69384,-14.2694 0.74718,-5.99488 1.89191,-9.00222 3.58612,-8.79106 1.6942,0.21116 6.30678,3.75754 5.5596,9.75242 z"
           style="fill:#2e3436;fill-opacity:1;stroke:none" />
        <path
           transform="matrix(0.17141215,0,0,0.17141215,44.299855,249.83979)"
           d="m 915.71429,273.07648 c 0,36.68749 -20.46699,66.42857 -45.71429,66.42857 -25.2473,0 -45.71429,-29.74108 -45.71429,-66.42857 0,-36.68749 20.46699,-66.42858 45.71429,-66.42858 25.2473,0 45.71429,29.74109 45.71429,66.42858 z"
           sodipodi:ry="66.428574"
           sodipodi:rx="45.714287"
           sodipodi:cy="273.07648"
           sodipodi:cx="870"
           id="path4621"
           style="fill:#eeeeec;fill-opacity:1;stroke:#2e3436"
           sodipodi:type="arc" />
        <path
           transform="matrix(0.21467066,0,0,0.18818032,-7.0480153,246.10591)"
           sodipodi:type="arc"
           style="fill:#eeeeec;fill-opacity:1;stroke:#2e3436"
           id="path4623"
           sodipodi:cx="870"
           sodipodi:cy="273.07648"
           sodipodi:rx="45.714287"
           sodipodi:ry="66.428574"
           d="m 915.71429,273.07648 c 0,36.68749 -20.46699,66.42857 -45.71429,66.42857 -25.2473,0 -45.71429,-29.74108 -45.71429,-66.42857 0,-36.68749 20.46699,-66.42858 45.71429,-66.42858 25.2473,0 45.71429,29.74109 45.71429,66.42858 z" />
        <path
           sodipodi:type="arc"
           style="fill:#2e3436;fill-opacity:1;stroke:#2e3436"
           id="path4625"
           sodipodi:cx="77.14286"
           sodipodi:cy="578.07648"
           sodipodi:rx="180"
           sodipodi:ry="180"
           d="m 257.14286,578.07648 c 0,99.41125 -80.58874,180 -180,180 -99.411255,0 -180,-80.58875 -180,-180 0,-99.41126 80.588745,-180 180,-180 99.41126,0 180,80.58874 180,180 z"
           transform="matrix(0.02108642,0,0,0.03197797,181.9237,281.13908)" />
        <path
           transform="matrix(0.01700517,0,0,0.0292489,196.89165,281.94419)"
           d="m 257.14286,578.07648 c 0,99.41125 -80.58874,180 -180,180 -99.411255,0 -180,-80.58875 -180,-180 0,-99.41126 80.588745,-180 180,-180 99.41126,0 180,80.58874 180,180 z"
           sodipodi:ry="180"
           sodipodi:rx="180"
           sodipodi:cy="578.07648"
           sodipodi:cx="77.14286"
           id="path4627"
           style="fill:#2e3436;fill-opacity:1;stroke:#2e3436"
           sodipodi:type="arc" />
        <path
           style="fill:#2e3436;fill-opacity:1;stroke:none"
           d="m 214.10774,350.48443 c -0.76942,6.1733 2.78853,14.18918 6.37554,14.35212 3.21941,0.14624 2.22783,-6.82678 2.99725,-13.00008 0.76943,-6.17329 -0.5042,-10.48762 -2.24882,-10.70507 -1.74463,-0.21744 -6.35455,3.17973 -7.12397,9.35303 z"
           id="path4706"
           inkscape:connector-curvature="0"
           sodipodi:nodetypes="sssss" />
        <path
           inkscape:connector-curvature="0"
           id="path3040"
           style="font-variant:normal;font-stretch:normal;fill:#2e3436;font-family:Coolvetica;-inkscape-font-specification:Coolvetica"
           d="m 453.03895,354.10964 c -12.1353,0 -18.27976,-7.68059 -18.27976,-23.04171 0,-15.36112 6.14446,-22.88809 18.27976,-22.88809 12.13528,0 18.27973,7.52697 18.27973,22.88809 0,15.36112 -6.14445,23.04171 -18.27973,23.04171 m 0,16.74363 c 23.50251,0 38.40284,-15.82199 38.40284,-39.78534 0,-24.11696 -14.74671,-39.78534 -38.40284,-39.78534 -23.96336,0 -38.86368,15.82199 -38.86368,39.78534 0,23.50252 14.43949,39.78534 38.86368,39.78534" />
        <path
           inkscape:connector-curvature="0"
           id="path3042"
           style="font-variant:normal;font-stretch:normal;fill:#2e3436;font-family:Coolvetica;-inkscape-font-specification:Coolvetica"
           d="m 534.94497,354.10964 c -12.13527,0 -18.27972,-7.68059 -18.27972,-23.04171 0,-15.36112 6.14445,-22.88809 18.27972,-22.88809 12.13528,0 18.27977,7.52697 18.27977,22.88809 0,15.36112 -6.14449,23.04171 -18.27977,23.04171 m 0,16.74363 c 23.50252,0 38.40285,-15.82199 38.40285,-39.78534 0,-24.11696 -14.74671,-39.78534 -38.40285,-39.78534 -23.96332,0 -38.86365,15.82199 -38.86365,39.78534 0,23.50252 14.43948,39.78534 38.86365,39.78534" />
        <path
           inkscape:connector-curvature="0"
           id="path3044"
           style="font-variant:normal;font-stretch:normal;fill:#2e3436;font-family:Coolvetica;-inkscape-font-specification:Coolvetica"
           d="m 644.34747,316.16762 c -0.92167,-15.51472 -10.44559,-24.88503 -32.10476,-24.88503 -23.65613,0 -32.41201,9.98474 -32.41201,21.35197 0,12.74974 5.37644,20.27671 34.71617,26.72838 8.1414,1.84333 12.13531,3.68668 12.13531,9.21669 0,4.91555 -6.29808,7.21973 -13.82504,7.21973 -8.90942,0 -15.20753,-4.14752 -15.20753,-11.21363 l -20.58392,0 c 0.30724,15.97556 14.2859,26.26754 35.94507,26.26754 21.96638,0 33.48729,-9.98475 33.48729,-23.50254 0,-17.66529 -8.60226,-19.04782 -35.02342,-26.26754 -7.98776,-2.15056 -12.28889,-4.30112 -12.28889,-8.44863 0,-4.76195 4.30113,-6.45167 12.44251,-6.45167 8.60225,0 12.59611,3.07223 13.51784,9.98473 l 19.20138,0" />
        <path
           inkscape:connector-curvature="0"
           id="path3046"
           style="font-variant:normal;font-stretch:normal;fill:#2e3436;font-family:Coolvetica;-inkscape-font-specification:Coolvetica"
           d="m 670.27661,323.69458 c 0.76801,-10.44556 7.37334,-16.59003 15.36112,-16.59003 7.83418,0 15.20752,5.37641 15.51476,16.59003 l -30.87588,0 m 51.45983,12.59613 c 0,-29.95418 -12.28893,-45.00812 -35.48429,-45.00812 -23.19524,0 -36.55949,15.05394 -36.55949,38.40284 0,27.34279 12.59618,41.16784 37.7884,41.16784 16.1292,0 28.57172,-8.75586 33.18006,-24.27059 l -20.58389,0 c -1.3825,5.22278 -7.06616,8.44862 -13.51784,8.44862 -9.8311,0 -16.28278,-7.37335 -16.89727,-18.74059 l 52.07432,0" />
        <path
           sodipodi:nodetypes="csccsccccccccsccscaccczc"
           inkscape:connector-curvature="0"
           id="path3080"
           d="m 326.76629,291.28628 c -15.20751,0 -25.81407,11.06102 -25.81407,25.19326 l 0,52.37309 19.51576,0 0,-45.77002 c 0,-9.06305 4.76297,-15.52004 11.34484,-15.52004 6.58187,0 10.91319,4.63523 12.09888,11.5582 l 0,49.73186 0.32733,0 19.17713,0 0.32734,0 0,-49.73186 c 1.18569,-6.92297 5.51701,-11.5582 12.09888,-11.5582 6.58187,0 11.34485,6.45699 11.34485,15.52004 l 0,45.77002 19.51575,0 0,-52.37309 c 0,-14.13224 -10.60655,-25.19326 -25.81407,-25.19326 0,0 -3.72481,0 -5.58722,0 -1.8624,0 -5.58721,0 -5.58721,0 -6.20013,0 -11.63038,1.83092 -15.89252,4.96641 -4.26106,-3.13227 -9.6846,-4.96641 -15.88124,-4.96641 0,0 -3.72481,0 -5.58722,0 -1.8624,0 -5.58721,0 -5.58721,0 z"
           style="font-variant:normal;font-stretch:normal;fill:#2e3436;font-family:Coolvetica;-inkscape-font-specification:Coolvetica" />
      </g>
    </g>
    <text
       sodipodi:linespacing="125%"
       id="text3033"
       y="163.93988"
       x="875.36481"
       style="font-size:206.87663269px;font-style:normal;font-weight:normal;line-height:125%;letter-spacing:0px;word-spacing:0px;fill:#2e3436;fill-opacity:1;stroke:none;font-family:Sans"
       xml:space="preserve"><tspan
         style="font-style:normal;font-variant:normal;font-weight:normal;font-stretch:normal;fill:#2e3436;font-family:Coolvetica;-inkscape-font-specification:Coolvetica"
         y="163.93988"
         x="875.36481"
         id="tspan3035"
         sodipodi:role="line">moose</tspan></text>
  </g>
</svg>
